<svg id="Layer_1" data-name="Layer 1" xmlns="http://www.w3.org/2000/svg" viewBox="0 0 1200 1200"><defs><style>.cls-1,.cls-2,.cls-3{fill:none;stroke:#000;stroke-miterlimit:10;}.cls-1{stroke-width:50px;}.cls-2{stroke-width:20px;}.cls-3{stroke-width:9px;}</style></defs><title>WEB 14.04</title><path class="cls-1" d="M112.65,600.09c0-241.39,182.24-440.63,416.35-468.35V45L751,183.76,529,322.5V244C356.34,270.83,223.67,420.08,223.67,600.09c0,149.92,92,278.84,222.58,333.16l-108.84,68C202.75,918.15,112.65,769.62,112.65,600.09ZM673,1068.37v86.8L451,1016.43,673,877.67v78.5c172.7-26.81,305.4-176.05,305.4-356.07,0-150-92-278.83-222.61-333.16l108.87-68c134.59,83.12,224.74,231.57,224.74,401.15C1089.39,841.5,907.17,1040.73,673,1068.37Z"/><path class="cls-2" d="M786.08,786c-36.71-7.93-36.71-47.35-36.71-47.35l1-143.3s2.33-153.69,0-160.68-16.3-14-16.3-14l-95.48-27.94H505.87l-85,24.45c-25.62,9.31-25.62,21-25.62,21v312a27.29,27.29,0,0,0,10.17,15.67,27.75,27.75,0,0,0,7.3,4.12l342.69.6s21.46,2.47,27.57-16.9V460.27C780.66,451,771.34,444,771.34,444c-9.31-4.66-20.41-3.5-20.41-3.5"/><path class="cls-2" d="M405.74,765.32s2.33,16.3,21,21H783c14,0,11.64-16.3,11.64-16.3V474.24c-2.33-7-11.64-14-11.64-14"/><path class="cls-2" d="M499.92,394.45s12.94,63.49,68.83,65.82c0,0,23.29,2.33,39.59-11.64,0,0,23.58-15.14,36.24-54.14"/><path class="cls-3" d="M483.42,399.19s12.64,74.86,84.93,76.87c0,0,26.1,4,50.2-14.06,0,0,28-19.21,42.12-62.81"/></svg>