<svg id="Layer_1" data-name="Layer 1" xmlns="http://www.w3.org/2000/svg" viewBox="0 0 1768 1338"><defs><style>.cls-1{stroke:#000;stroke-miterlimit:10;stroke-width:5px;}</style></defs><title>WEB 06.04 aaaaaaa</title><path d="M466,1101.44h-4.28c-84.06,0-168.12-.13-252.18.11a34,34,0,0,1-33.92-34.13c.38-40,.23-79.91.24-119.87q0-131.08,0-262.15c0-17.54,13.8-32.4,30.65-33,19.14-.72,34.33,12.44,35.63,30.91.13,1.84.13,3.68.13,5.52q0,106.75,0,213.49c0,1.49,0,3,0,4.75h858.15v-3.58q0-332.16,0-664.32a30.09,30.09,0,0,0-30.44-30.4l-890.59-.09c-16.45,0-29.15-8.56-33.85-22.79-7.23-21.86,8.78-43.74,32-43.74q441.15,0,882.3-.1c13.79,0,27.36.48,40.53,4.89a97.14,97.14,0,0,1,66.51,96.28c-.32,8.61,0,17.24,0,26.39H1171q77.73,0,155.46,0c75,0,141.75,54.83,156,128.56a196.22,196.22,0,0,1,3.33,33.92c.46,29.36.15,58.73.15,88.09,0,1.36,0,2.72,0,4.5h4c29.82,0,59.65,0,89.47-.1A160.74,160.74,0,0,1,1737,650.37a154.58,154.58,0,0,1,3.7,33.16c.25,128.28.07,256.56.28,384.84,0,16.37-14,33.14-33.08,33.11q-110.55-.18-221.09,0h-3.75c-3,9-5.18,18-8.78,26.41-24.49,57.07-67.49,91.27-129,99.67-81.61,11.14-157.46-42-176.57-122.07-.74-3.12-1.85-4.09-5.16-4.09q-189.31.16-378.62,0c-3.1,0-4.21.82-5,3.83-17.86,65.76-59.95,107.21-126.65,120.68-52.86,10.67-100.14-4-139.93-40.67-24-22.1-39.33-49.53-46.63-81.38C466.54,1103.15,466.29,1102.5,466,1101.44Zm701-194.38h507.45c0-.92.1-1.6.1-2.28,0-73.69.08-147.38-.17-221.07-.12-36.88-23.8-71.08-57.91-85.28-14.24-5.93-29.07-7.31-44.25-7.28q-66,.13-131.94,0-89.12,0-178.24,0c-11.22,0-20.51-4.16-27.21-13.14-8-10.7-9.19-22.56-3.44-34.52,6-12.41,16.46-18.79,30.2-18.83,51.12-.14,102.25-.06,153.37-.06h4.38c.08-1.14.15-1.7.15-2.26-.11-31.43.07-62.86-.41-94.29-.45-29.57-13.09-53.45-36-71.85-18.55-14.92-40.14-20.46-63.72-20.33-49.51.27-99,.08-148.53.08H1167ZM623.54,973.89a94.29,94.29,0,0,0-94.31,96.84c1.36,51.4,43.38,90.5,91.82,91.72,54.36,1.38,98-43.8,96.76-96.48C716.7,1018,677.41,974,623.54,973.89Zm701.45,0c-54.17,0-96.23,45.61-94.19,98,1.94,49.85,44.18,91.65,96.41,90.58,49.35-1,94.39-42.57,92-98.68A94.31,94.31,0,0,0,1325,973.89Zm-570.46,0c0,.5-.08.76,0,.92a16,16,0,0,0,.93,1.45,157.19,157.19,0,0,1,24.6,55.44c.61,2.66,1.63,3.41,4.32,3.4q190-.11,379.94,0c2.51,0,3.51-.64,4.1-3.23A158.14,158.14,0,0,1,1193,976.36c.48-.7.83-1.48,1.39-2.5ZM493.06,974H242.57v60.85H466.11A162.75,162.75,0,0,1,493.06,974Zm989.37,60.76H1674.3V974H1455.43A162.34,162.34,0,0,1,1482.43,1034.76Z"/><path d="M241,336q-95.66,0-191.32,0c-13,0-22.87-5.78-29.13-17s-5.92-22.85.91-33.77c6.6-10.55,16.53-15.6,29-15.6H322.21q55.08,0,110.16,0c16.93,0,30.64,12.45,32.88,29.48,2.06,15.7-8.22,31.24-23.81,35.59a38.57,38.57,0,0,1-10.21,1.25Q336.09,336,241,336Z"/><path d="M161.09,397.29q24,0,48,0a33.15,33.15,0,0,1,1.77,66.25c-8.61.41-17.26.16-25.9.17-23.6,0-47.2.08-70.8,0-19.93-.08-34.65-15.11-34.14-34.64.45-17.26,15.11-31.69,32.37-31.75C128.63,397.25,144.86,397.29,161.09,397.29Z"/><path d="M193,591c-6.21,0-12.45.42-18.62-.08A33.17,33.17,0,0,1,176,524.75c12.4-.33,24.91-.66,37.23.48,17.5,1.62,30,17.18,28.94,34.4a33.06,33.06,0,0,1-33,31.54c-5.41.07-10.81,0-16.22,0Z"/><path class="cls-1" d="M345.59,583.67q1.7,0,3.41-3.41T350.71,569V452q0-7.8-1.71-11.09t-3.41-3.54H488v7.31L492.85,473q-6.1-2.68-21.45-5.73t-37.06-3H398.25q-7.31,0-8.65,1.1t-1.34,6.22v18q0,5.37,1.34,6.34t8.41,1h35.11a131.28,131.28,0,0,0,22.8-1.58q8.65-1.58,11.34-3.29-1,4.63-2.19,10.73t-2,11.7a74.44,74.44,0,0,0-.73,9.26H398q-7.08,0-8.41.85T388.26,531v38q0,8,1.71,11.34t3.41,3.29Z"/><path class="cls-1" d="M510.16,583.67q1.7,0,3.29-3.41T515,569V452q0-7.8-1.71-11.09t-3.41-3.54h80q21.45,0,34.25,5.36t18.53,15.72q5.73,10.37,5.73,25.72a45.21,45.21,0,0,1-4,19.5,36.76,36.76,0,0,1-11.09,13.9,46.53,46.53,0,0,1-15.85,7.8v.73q9.75,3.9,20.48,15.24a153.45,153.45,0,0,1,19.26,25.23q5.61,9,10.24,12.92t7.07,4.14H613a6,6,0,0,0,4.75-3.29q1.83-3-1.34-10.12A80.31,80.31,0,0,0,604,550a50.34,50.34,0,0,0-16.94-13A51.5,51.5,0,0,0,565,532.47h-2.68q-7.56,0-8.78,1.22t-1.22,6.1V569q0,7.81,1.71,11.22t3.41,3.41Zm52.17-75.82h20q15.36,0,22.19-5.49t6.83-18.16a20.26,20.26,0,0,0-2.44-10,16.12,16.12,0,0,0-8.17-6.83q-5.73-2.43-16-2.44H562.33q-7.56,0-8.78.73t-1.22,5.61v30q0,4.88,1.22,5.73T562.33,507.85Z"/><path class="cls-1" d="M686.67,583.67q1.7,0,3.41-3.41T691.79,569V452q0-7.8-1.71-11.09t-3.41-3.54H829v7.31L833.92,473q-6.1-2.68-21.45-5.73t-37.06-3H739.33q-7.31,0-8.65,1.1t-1.34,6.22v18q0,5.37,1.34,6.34t8.41,1h35.11a131.28,131.28,0,0,0,22.8-1.58q8.65-1.58,11.34-3.29-1,4.63-2.19,10.73t-2,11.7a74.44,74.44,0,0,0-.73,9.26H739.09q-7.08,0-8.41.85T729.33,531v18q0,5.61,1.22,6.58t8.53,1h65.83q14.14,0,22.8-3.29T839,546.86l-4.88,29.26v7.56Z"/><path class="cls-1" d="M856.11,583.67q1.7,0,3.41-3.41T861.23,569V452q0-7.8-1.71-11.09t-3.41-3.54H998.49v7.31l4.88,28.28q-6.1-2.68-21.45-5.73t-37.06-3H908.77q-7.31,0-8.65,1.1t-1.34,6.22v18q0,5.37,1.34,6.34t8.41,1h35.11a131.28,131.28,0,0,0,22.8-1.58q8.65-1.58,11.34-3.29-1,4.63-2.19,10.73t-2,11.7a74.44,74.44,0,0,0-.73,9.26H908.53q-7.08,0-8.41.85T898.77,531v18q0,5.61,1.22,6.58t8.53,1h65.83q14.14,0,22.8-3.29t11.34-6.46l-4.88,29.26v7.56Z"/><path class="cls-1" d="M474.72,788.44A402.81,402.81,0,0,1,427.67,786q-20.48-2.43-29.5-4.88v-7.31l-4.88-31q4.63,3.9,15.36,8.29t27.55,7.43a220.75,220.75,0,0,0,39,3q13.65,0,21-1.83t10-5.24a12.64,12.64,0,0,0,2.68-8,11.32,11.32,0,0,0-3.9-9.14q-3.9-3.29-14-5.49t-28.65-4.63q-22.19-2.93-37.06-8T403,704.7q-7.31-9.38-7.31-25a38,38,0,0,1,6.58-22.19q6.58-9.51,21.21-14.87t38.76-5.36a330.62,330.62,0,0,1,43.4,2.44q18,2.44,24.87,4.88v7.31l7.31,26.82a105,105,0,0,0-17.55-6.58,200.59,200.59,0,0,0-26.58-5.73,216.22,216.22,0,0,0-32.67-2.32q-11,0-17.07,1.83t-8.65,5.12a12.9,12.9,0,0,0-2.56,8.17,11.33,11.33,0,0,0,4.51,9.39q4.51,3.54,14.75,5.73t27.55,4.14q26.57,2.93,41,8.78t19.87,15q5.48,9.14,5.49,22.06a43.89,43.89,0,0,1-4.15,19.63A33.53,33.53,0,0,1,529,777.72q-8.66,5.37-22.19,8A167.15,167.15,0,0,1,474.72,788.44Z"/><path class="cls-1" d="M567.85,786q1.7,0,3.41-3.41T573,771.38v-117q0-7.8-1.71-11.09t-3.41-3.54h47.79q-1.71,0-3.41,3.41t-1.71,11.46v37.3q0,5.37,1.34,6.34t8.65,1h62.66q7.31,0,8.53-.85t1.22-6.46V654.35q0-7.8-1.71-11.09t-3.41-3.54h47.79q-1.71,0-3.41,3.41t-1.71,11.46V771.38q0,7.81,1.71,11.22t3.41,3.41H687.8q1.7,0,3.41-3.41t1.71-11.22v-38q0-5.61-1.34-6.46t-8.41-.85H620.51q-7.31,0-8.65,1t-1.34,6.34v38q0,7.81,1.71,11.22t3.41,3.41Z"/><path class="cls-1" d="M760,786q1.7,0,3.29-3.29t1.58-11.34v-117q0-7.8-1.58-11.21T760,639.73H807q-1.71,0-3.41,3.29T801.9,654.6V771.38q0,7.81,1.71,11.22T807,786Z"/><path class="cls-1" d="M831.65,786q1.7,0,3.29-3.41t1.58-11.22v-117q0-7.8-1.71-11.09t-3.41-3.54h80q20.72,0,33.52,6t18.9,17.07q6.09,11.1,6.1,26.45,0,15.61-6.1,26.94t-18.9,17.31q-12.8,6-33.52,6h-37.3v31.94q0,7.81,1.71,11.22t3.41,3.41Zm52.42-73.38h12.19q14.38,0,22.31-2.44t11.09-7.56q3.17-5.12,3.17-13.41,0-8-3.29-12.92t-10.73-6.95q-7.44-2.07-20.11-2.07H884.06q-7.56,0-8.78.85t-1.22,5.73V705.8q0,4.88,1.22,5.85T884.06,712.62Z"/></svg>