<svg id="Layer_1" data-name="Layer 1" xmlns="http://www.w3.org/2000/svg" viewBox="0 0 1200 1200"><defs><style>.cls-1,.cls-2{fill:none;stroke:#000;stroke-miterlimit:10;}.cls-1{stroke-width:20px;}.cls-2{stroke-width:45px;}</style></defs><title>WEB 06.04</title><path class="cls-1" d="M954.15,727.31a225.58,225.58,0,1,1-159.92,66.23l.3-.31a226.2,226.2,0,0,1,159.62-65.92Zm148.63,77.21a209.17,209.17,0,0,0-148.63-61.95c-58.29,0-110.78,23.8-148.94,61.65a210.58,210.58,0,1,0,297.57.3Z"/><path class="cls-1" d="M808,955A7.9,7.9,0,0,1,811,944.61a7.52,7.52,0,0,1,10.38,2.74l58.29,101,208.14-208.14a7.74,7.74,0,0,1,11,0,7.38,7.38,0,0,1,0,10.68L883.35,1066.38l-1.53,1.23a7.54,7.54,0,0,1-10.38-2.75Z"/><path class="cls-2" d="M724,930H168s-54,4-54-34V386s8-100,64-140,157-69,157-69l84-87H749l92,92s164,48,199,126c0,0,9,44,9,80V748.21"/><polyline class="cls-2" points="419 90 582 279 749 90"/><polyline class="cls-2" points="335 177 492 389 582 279 681 402 841 184"/><line class="cls-2" x1="582" y1="279" x2="582" y2="930"/></svg>