<svg
                    xmlns="http://www.w3.org/2000/svg"
                    width="100%"
                    height="100%"
                    viewBox="0 0 1274 176"
                    fill="none"
                  >
                    <path
                      d="M61.4874 110.952H39.854V173.835H0V2.14648H39.854V73.196H61.4874V2.14648H101.341V173.854H61.4874V110.952Z"
                      fill="white"
                    />
                    <path
                      d="M114.613 2.14648H188.311V39.9218H154.448V68.9038H187.23V106.679H154.448V136.079H188.728V173.854H114.613V2.14648Z"
                      fill="white"
                    />
                    <path
                      d="M269.934 2.14648L308.499 173.854H267.355L262.862 151.102H239.939L235.446 173.854H196.445L235.01 2.14648H269.934ZM252.149 75.7599L245.722 116.745H259.221L252.149 75.7599Z"
                      fill="white"
                    />
                    <path
                      d="M300.914 2.14648H390.046V39.9218H365.398V173.854H325.544V39.9218H300.896V2.14648H300.914Z"
                      fill="white"
                    />
                    <path
                      d="M452.443 2.14648H541.574V39.9218H516.926V173.854H477.072V39.9218H452.424V2.14648H452.443Z"
                      fill="white"
                    />
                    <path
                      d="M612.542 110.952H590.908V173.835H551.054V2.14648H590.908V73.196H612.542V2.14648H652.396V173.854H612.542V110.952Z"
                      fill="white"
                    />
                    <path
                      d="M663.715 2.14648H737.412V39.9218H703.55V68.9038H736.332V106.679H703.55V136.079H737.83V173.854H663.696V2.14648H663.715Z"
                      fill="white"
                    />
                    <path
                      d="M788.661 2.14648H877.793V39.9218H853.145V173.854H813.291V39.9218H788.643V2.14648H788.661Z"
                      fill="white"
                    />
                    <path
                      d="M887.272 49.3605C887.272 19.5239 908.053 0 937.839 0C967.625 0 988.405 19.5239 988.405 49.3605V126.62C988.405 156.457 968.042 175.981 937.839 175.981C907.636 175.981 887.272 156.457 887.272 126.62V49.3605ZM948.115 50.0063C948.115 43.359 944.039 39.0668 937.839 39.0668C931.639 39.0668 927.563 43.359 927.563 50.0063V125.975C927.563 132.622 931.639 136.914 937.839 136.914C944.039 136.914 948.115 132.622 948.115 125.975V50.0063Z"
                      fill="white"
                    />
                    <path
                      d="M1026.72 173.854L990.301 2.14648H1031.44L1050.94 96.3664H1051.79L1070.22 47.2148H1074.71L1093.14 96.3664H1093.99L1115.63 2.14648H1156.77L1120.35 173.854H1087.57L1073 120.619L1059.51 173.854H1026.72Z"
                      fill="white"
                    />
                    <path
                      d="M1208 95.7207V173.835H1168.15V2.14648H1203.72L1234.15 83.4897V2.14648H1274V173.854H1238.43L1208 95.7397V95.7207Z"
                      fill="white"
                    />
                  </svg>